# xmcd
#
# Track frame offsets:
#  150
#  19516
#  42362
#  63647
#  86934
#  112482
#  133416
#  165488
#  187658
#  203693
#  233537
#
# Disc length: 3555 seconds
#
# Revision: 0
# Processed by: cddbd v1.5.2PL0 Copyright (c) Steve Scherf et al.
# Submitted via: AltoMP3_Maker 3.0
#
DISCID=950de10b
DTITLE=Mo' Mojo - Finally!
DYEAR=1900
DGENRE=
TTITLE0=Acadiana
TTITLE1=Uncle Bud/Bosco Stomp
TTITLE2=I Know My Business Too
TTITLE3=Dawg Hill
TTITLE4=Ride That Train
TTITLE5=My Jolie
TTITLE6=Bunny Bread
TTITLE7=Tell Me Why
TTITLE8=Rockin' Chair
TTITLE9=Kiss
TTITLE10=Who Do You Love - Cissy Strut
EXTD=
EXTT0=
EXTT1=
EXTT2=
EXTT3=
EXTT4=
EXTT5=
EXTT6=
EXTT7=
EXTT8=
EXTT9=
EXTT10=
PLAYORDER=
